# xmcd
#
# Track frame offsets: 
#        150
#        8913
#        21437
#        35652
#        51622
#        66448
#        78889
#        96150
#        114682
#        119945
#        132656
#        144720
#        170931
#        178159
#
# Disc length: 2676 seconds
#
# Revision: 0
# Processed by: cddbd v1.5.2PL0 Copyright (c) Steve Scherf et al.
# Submitted via: ExactAudioCopy v0.95b4
#
DISCID=e30a720e
DTITLE=The New - Here Comes Everybody
DYEAR=1900
DGENRE=Acid
TTITLE0=Headline
TTITLE1=Letting Go
TTITLE2=Superman
TTITLE3=Deadbeat
TTITLE4=Livewire
TTITLE5=Sister Day
TTITLE6=Rush
TTITLE7=Quiet Today
TTITLE8=Scrubbers
TTITLE9=Here Comes Everybody
TTITLE10=Embers
TTITLE11=Be Damned
TTITLE12=Fifth Circle
TTITLE13=Kontrapunk
EXTD=
EXTT0=
EXTT1=
EXTT2=
EXTT3=
EXTT4=
EXTT5=
EXTT6=
EXTT7=
EXTT8=
EXTT9=
EXTT10=
EXTT11=
EXTT12=
EXTT13=
PLAYORDER=
